<svg xmlns="http://www.w3.org/2000/svg" xmlns:xlink="http://www.w3.org/1999/xlink" width="1080" zoomAndPan="magnify" viewBox="0 0 810 809.999993" height="1080" preserveAspectRatio="xMidYMid meet" version="1.0"><defs><clipPath id="97610e919c"><path d="M 36.546875 36.546875 L 773.796875 36.546875 L 773.796875 773.796875 L 36.546875 773.796875 Z M 36.546875 36.546875 " clip-rule="nonzero"/></clipPath><clipPath id="511862cae0"><path d="M 189.386719 187.832031 L 671.636719 187.832031 L 671.636719 622.082031 L 189.386719 622.082031 Z M 189.386719 187.832031 " clip-rule="nonzero"/></clipPath></defs><g clip-path="url(#97610e919c)"><path fill="#5a2989" d="M 773.445312 404.996094 C 773.449219 411.027344 773.300781 417.054688 773.003906 423.078125 C 772.707031 429.101562 772.265625 435.113281 771.671875 441.113281 C 771.082031 447.113281 770.34375 453.097656 769.460938 459.0625 C 768.574219 465.027344 767.542969 470.964844 766.367188 476.878906 C 765.191406 482.792969 763.871094 488.675781 762.40625 494.523438 C 760.941406 500.375 759.332031 506.183594 757.582031 511.953125 C 755.832031 517.722656 753.941406 523.449219 751.910156 529.125 C 749.878906 534.800781 747.707031 540.425781 745.402344 545.996094 C 743.09375 551.566406 740.648438 557.078125 738.070312 562.53125 C 735.492188 567.980469 732.785156 573.367188 729.941406 578.683594 C 727.097656 584 724.128906 589.246094 721.027344 594.417969 C 717.925781 599.589844 714.703125 604.683594 711.351562 609.699219 C 708.003906 614.710938 704.53125 619.640625 700.9375 624.484375 C 697.347656 629.328125 693.636719 634.078125 689.8125 638.738281 C 685.988281 643.402344 682.050781 647.964844 678 652.433594 C 673.953125 656.902344 669.792969 661.265625 665.53125 665.53125 C 661.265625 669.792969 656.902344 673.953125 652.433594 678 C 647.964844 682.050781 643.402344 685.988281 638.738281 689.8125 C 634.078125 693.636719 629.328125 697.347656 624.484375 700.9375 C 619.640625 704.53125 614.710938 708.003906 609.699219 711.351562 C 604.683594 714.703125 599.589844 717.925781 594.417969 721.027344 C 589.246094 724.128906 584 727.097656 578.683594 729.941406 C 573.367188 732.785156 567.980469 735.492188 562.53125 738.070312 C 557.078125 740.648438 551.566406 743.09375 545.996094 745.402344 C 540.425781 747.707031 534.800781 749.878906 529.125 751.910156 C 523.449219 753.941406 517.722656 755.832031 511.953125 757.582031 C 506.183594 759.332031 500.371094 760.941406 494.523438 762.40625 C 488.675781 763.871094 482.792969 765.191406 476.878906 766.367188 C 470.964844 767.542969 465.027344 768.574219 459.0625 769.460938 C 453.097656 770.34375 447.113281 771.082031 441.113281 771.671875 C 435.113281 772.265625 429.101562 772.707031 423.078125 773.003906 C 417.054688 773.300781 411.027344 773.445312 404.996094 773.445312 C 398.96875 773.445312 392.941406 773.300781 386.917969 773.003906 C 380.894531 772.707031 374.882812 772.265625 368.882812 771.671875 C 362.882812 771.082031 356.898438 770.34375 350.933594 769.460938 C 344.96875 768.574219 339.03125 767.542969 333.117188 766.367188 C 327.203125 765.191406 321.320312 763.871094 315.472656 762.40625 C 309.621094 760.941406 303.8125 759.332031 298.042969 757.582031 C 292.273438 755.832031 286.546875 753.941406 280.871094 751.910156 C 275.195312 749.878906 269.570312 747.707031 264 745.402344 C 258.425781 743.09375 252.917969 740.648438 247.464844 738.070312 C 242.015625 735.492188 236.628906 732.785156 231.3125 729.941406 C 225.996094 727.097656 220.75 724.128906 215.578125 721.027344 C 210.40625 717.925781 205.3125 714.703125 200.296875 711.351562 C 195.285156 708.003906 190.355469 704.53125 185.511719 700.9375 C 180.667969 697.347656 175.917969 693.636719 171.257812 689.8125 C 166.59375 685.988281 162.03125 682.050781 157.5625 678 C 153.09375 673.953125 148.730469 669.792969 144.464844 665.53125 C 140.203125 661.265625 136.042969 656.902344 131.996094 652.433594 C 127.945312 647.964844 124.007812 643.402344 120.183594 638.738281 C 116.359375 634.078125 112.648438 629.328125 109.058594 624.484375 C 105.464844 619.640625 101.992188 614.710938 98.644531 609.699219 C 95.292969 604.683594 92.070312 599.589844 88.96875 594.417969 C 85.867188 589.246094 82.898438 584 80.054688 578.683594 C 77.210938 573.367188 74.503906 567.980469 71.925781 562.53125 C 69.347656 557.078125 66.902344 551.566406 64.59375 545.996094 C 62.289062 540.425781 60.117188 534.800781 58.085938 529.125 C 56.054688 523.449219 54.164062 517.722656 52.414062 511.953125 C 50.664062 506.183594 49.054688 500.371094 47.589844 494.523438 C 46.125 488.675781 44.804688 482.792969 43.628906 476.878906 C 42.453125 470.964844 41.421875 465.027344 40.535156 459.0625 C 39.652344 453.097656 38.914062 447.113281 38.324219 441.113281 C 37.730469 435.113281 37.289062 429.101562 36.992188 423.078125 C 36.695312 417.054688 36.546875 411.027344 36.546875 404.996094 C 36.546875 398.96875 36.695312 392.941406 36.992188 386.917969 C 37.289062 380.894531 37.730469 374.882812 38.324219 368.882812 C 38.914062 362.882812 39.652344 356.898438 40.535156 350.933594 C 41.421875 344.96875 42.453125 339.03125 43.628906 333.117188 C 44.804688 327.203125 46.125 321.320312 47.589844 315.472656 C 49.054688 309.621094 50.664062 303.8125 52.414062 298.042969 C 54.164062 292.273438 56.054688 286.546875 58.085938 280.871094 C 60.117188 275.195312 62.289062 269.570312 64.59375 264 C 66.902344 258.425781 69.347656 252.917969 71.925781 247.464844 C 74.503906 242.015625 77.210938 236.628906 80.054688 231.3125 C 82.898438 225.996094 85.867188 220.75 88.96875 215.578125 C 92.070312 210.40625 95.292969 205.3125 98.644531 200.296875 C 101.992188 195.285156 105.464844 190.355469 109.058594 185.511719 C 112.648438 180.667969 116.359375 175.917969 120.183594 171.257812 C 124.007812 166.59375 127.945312 162.03125 131.996094 157.5625 C 136.042969 153.09375 140.203125 148.730469 144.464844 144.464844 C 148.730469 140.203125 153.09375 136.042969 157.5625 131.996094 C 162.03125 127.945312 166.59375 124.007812 171.257812 120.183594 C 175.917969 116.359375 180.667969 112.648438 185.511719 109.058594 C 190.355469 105.464844 195.285156 101.992188 200.296875 98.644531 C 205.3125 95.292969 210.40625 92.070312 215.578125 88.96875 C 220.75 85.867188 225.996094 82.898438 231.3125 80.054688 C 236.628906 77.210938 242.015625 74.503906 247.464844 71.925781 C 252.917969 69.347656 258.425781 66.902344 264 64.59375 C 269.570312 62.289062 275.195312 60.117188 280.871094 58.085938 C 286.546875 56.054688 292.273438 54.164062 298.042969 52.414062 C 303.8125 50.664062 309.621094 49.054688 315.472656 47.589844 C 321.320312 46.125 327.203125 44.804688 333.117188 43.628906 C 339.03125 42.453125 344.96875 41.421875 350.933594 40.535156 C 356.898438 39.652344 362.882812 38.914062 368.882812 38.324219 C 374.882812 37.730469 380.894531 37.289062 386.917969 36.992188 C 392.941406 36.695312 398.96875 36.546875 404.996094 36.546875 C 411.027344 36.546875 417.054688 36.695312 423.078125 36.992188 C 429.101562 37.289062 435.113281 37.730469 441.113281 38.324219 C 447.113281 38.914062 453.097656 39.652344 459.0625 40.535156 C 465.027344 41.421875 470.964844 42.453125 476.878906 43.628906 C 482.792969 44.804688 488.675781 46.125 494.523438 47.589844 C 500.375 49.054688 506.183594 50.664062 511.953125 52.414062 C 517.722656 54.164062 523.449219 56.054688 529.125 58.085938 C 534.800781 60.117188 540.425781 62.289062 545.996094 64.59375 C 551.566406 66.902344 557.078125 69.347656 562.53125 71.925781 C 567.980469 74.503906 573.367188 77.210938 578.683594 80.054688 C 584 82.898438 589.246094 85.867188 594.417969 88.96875 C 599.589844 92.070312 604.683594 95.292969 609.699219 98.644531 C 614.710938 101.992188 619.640625 105.464844 624.484375 109.058594 C 629.328125 112.648438 634.078125 116.359375 638.738281 120.183594 C 643.402344 124.007812 647.964844 127.945312 652.433594 131.996094 C 656.902344 136.042969 661.265625 140.203125 665.53125 144.464844 C 669.792969 148.730469 673.953125 153.09375 678 157.5625 C 682.050781 162.03125 685.988281 166.59375 689.8125 171.257812 C 693.636719 175.917969 697.347656 180.667969 700.9375 185.511719 C 704.53125 190.355469 708.003906 195.285156 711.351562 200.296875 C 714.703125 205.3125 717.925781 210.40625 721.027344 215.578125 C 724.128906 220.75 727.097656 225.996094 729.941406 231.3125 C 732.785156 236.628906 735.492188 242.015625 738.070312 247.464844 C 740.648438 252.917969 743.09375 258.425781 745.402344 264 C 747.707031 269.570312 749.878906 275.195312 751.910156 280.871094 C 753.941406 286.546875 755.832031 292.273438 757.582031 298.042969 C 759.332031 303.8125 760.941406 309.621094 762.40625 315.472656 C 763.871094 321.320312 765.191406 327.203125 766.367188 333.117188 C 767.542969 339.03125 768.574219 344.96875 769.460938 350.933594 C 770.34375 356.898438 771.082031 362.882812 771.671875 368.882812 C 772.265625 374.882812 772.707031 380.894531 773.003906 386.917969 C 773.300781 392.941406 773.449219 398.96875 773.445312 404.996094 Z M 773.445312 404.996094 " fill-opacity="1" fill-rule="nonzero"/></g><g clip-path="url(#511862cae0)"><path fill="#ffffff" d="M 671.742188 622.164062 L 525.707031 622.164062 L 389.574219 431.804688 L 389.574219 622.164062 L 278.976562 622.164062 C 270.089844 622.164062 262.839844 615.117188 262.738281 606.234375 L 259.878906 456.929688 C 259.878906 456.621094 259.878906 456.214844 259.878906 455.90625 C 259.878906 442.527344 265.902344 429.761719 276.320312 421.289062 C 283.46875 415.464844 287.65625 406.683594 287.65625 397.492188 L 287.65625 300.984375 C 287.65625 296.289062 283.777344 292.613281 279.078125 292.816406 C 274.789062 293.019531 271.214844 296.902344 271.214844 301.292969 L 271.214844 381.96875 C 271.214844 386.464844 267.4375 390.140625 262.839844 389.933594 C 258.550781 389.730469 255.179688 386.054688 255.179688 381.664062 L 255.179688 300.984375 C 255.179688 296.492188 251.503906 292.816406 247.011719 292.816406 L 246.601562 292.816406 C 242.109375 292.816406 238.433594 296.492188 238.433594 300.984375 L 238.433594 381.867188 C 238.433594 386.464844 234.652344 390.039062 230.058594 389.832031 C 225.769531 389.628906 222.398438 385.953125 222.398438 381.5625 L 222.398438 301.191406 C 222.398438 296.902344 218.925781 292.917969 214.535156 292.714844 C 214.230469 292.714844 214.023438 292.714844 213.71875 292.714844 C 209.429688 292.917969 205.957031 296.492188 205.957031 300.882812 L 205.957031 397.390625 C 205.957031 401.984375 206.980469 406.480469 208.917969 410.5625 C 210.859375 414.648438 213.71875 418.324219 217.292969 421.183594 C 228.015625 429.867188 234.042969 443.039062 233.734375 456.828125 L 230.875 606.132812 C 230.671875 615.015625 223.523438 622.0625 214.636719 622.0625 L 189.617188 622.0625 L 189.617188 187.832031 L 295.722656 187.832031 C 304.609375 187.832031 311.859375 194.980469 311.960938 203.765625 L 315.332031 383.605469 C 315.535156 392.691406 312.167969 401.578125 305.628906 407.910156 C 293.171875 420.0625 284.898438 442.019531 284.898438 467.039062 C 284.898438 505.027344 304.097656 535.871094 327.789062 536.378906 C 327.996094 536.378906 328.199219 536.378906 328.402344 536.378906 C 352.402344 536.378906 371.910156 505.335938 371.910156 467.039062 C 371.910156 442.019531 363.636719 420.164062 351.175781 407.910156 C 344.640625 401.578125 341.269531 392.691406 341.476562 383.605469 L 344.84375 203.765625 C 344.949219 194.980469 352.199219 187.832031 360.980469 187.832031 L 389.574219 187.832031 L 389.574219 375.128906 L 524.480469 187.832031 L 663.675781 187.832031 L 504.160156 398.511719 Z M 671.742188 622.164062 " fill-opacity="1" fill-rule="nonzero"/></g></svg>