<?xml version="1.0" encoding="utf-8"?>
<!-- Generator: Adobe Illustrator 27.5.0, SVG Export Plug-In . SVG Version: 6.00 Build 0)  -->
<svg version="1.1" id="Layer_1" xmlns="http://www.w3.org/2000/svg" xmlns:xlink="http://www.w3.org/1999/xlink" x="0px" y="0px"
	 viewBox="0 0 4000 4000" style="enable-background:new 0 0 4000 4000;" xml:space="preserve">
<g>
	<g>
		<rect x="0.5" y="0.5" style="fill:#FFFFFF;" width="3999" height="3999"/>
		<path d="M3999,1v3998H1V1H3999 M4000,0H0v4000h4000V0L4000,0z"/>
	</g>
</g>
<g>
	<g>
		<defs>
			<path id="SVGID_22_" d="M1990.943,2365.948c-126.611-134.174-172.018-182.294-298.63-316.467c0,110.537,0,84.175,0,194.711
				c0,267.356-45.751,321.716-348.038,321.716c0-485.896,0-971.793,0-1457.69c344.976,0,348.038,47.673,348.038,359.082v197.947
				c45.287-416.491,441.812-920.113,1148.71-800.714c-202.083,181.302-35.721,1181.409-681.51,1038.318
				c-60.968-219.02,22.493-410.976,198.165-547.299c-237.988,100.154-499.668,394.829-268.084,637.751l545.878,572.604
				C2285.422,2565.908,2225.9,2614.942,1990.943,2365.948"/>
		</defs>
		<clipPath id="SVGID_00000168092759477997552270000008806068285651265202_">
			<use xlink:href="#SVGID_22_"  style="overflow:visible;"/>
		</clipPath>
		<linearGradient id="SVGID_1_" gradientUnits="userSpaceOnUse" x1="1635.4624" y1="2693.0867" x2="2586.9058" y2="584.8528">
			<stop  offset="0" style="stop-color:#215605"/>
			<stop  offset="1" style="stop-color:#AFF022"/>
		</linearGradient>
		
			<rect x="1344.276" y="745.135" style="clip-path:url(#SVGID_00000168092759477997552270000008806068285651265202_);fill:url(#SVGID_1_);" width="1496.748" height="1869.807"/>
	</g>
	<defs>
		
			<filter id="Adobe_OpacityMaskFilter" filterUnits="userSpaceOnUse" x="1344.276" y="1355.553" width="1291.197" height="1214.271">
			<feColorMatrix  type="matrix" values="1 0 0 0 0  0 1 0 0 0  0 0 1 0 0  0 0 0 1 0"/>
		</filter>
	</defs>
	
		<mask maskUnits="userSpaceOnUse" x="1344.276" y="1355.553" width="1291.197" height="1214.271" id="SVGID_00000056391925296376852650000017921391393693092790_">
		<g style="filter:url(#Adobe_OpacityMaskFilter);">
			
				<linearGradient id="SVGID_00000104675496968071531700000011242896236226714761_" gradientUnits="userSpaceOnUse" x1="943.8076" y1="4154.8965" x2="630.4938" y2="2435.1418" gradientTransform="matrix(1 0 0 1 1262.4678 -1004.3989)">
				<stop  offset="0" style="stop-color:#FFFFFF"/>
				<stop  offset="1" style="stop-color:#000000"/>
			</linearGradient>
			
				<rect x="1344.276" y="1355.552" style="fill:url(#SVGID_00000104675496968071531700000011242896236226714761_);" width="1291.197" height="1214.271"/>
		</g>
	</mask>
	
		<path style="mask:url(#SVGID_00000056391925296376852650000017921391393693092790_);fill-rule:evenodd;clip-rule:evenodd;fill:#1C4104;" d="
		M1561.567,1895.095c20.535,434.652-85.562,414.117-85.562,414.117c-68.449,68.45-131.729-564.705-131.729-564.705
		c0,273.8,0,547.601,0,821.402c302.287,0,348.038-54.36,348.038-321.716c0-110.536,0-84.175,0-194.711
		c126.612,134.173,172.019,182.294,298.63,316.467c234.957,248.994,294.478,199.96,644.53,199.96l-545.878-572.604
		c-231.584-242.922,30.096-537.597,268.084-637.751c-294.793,67.947-370.874,319.647-370.874,319.647
		c-2.566-29.947,0.855-89.839,0.855-89.839c-102.674,277.22,20.535,412.406,20.535,412.406
		c68.45,112.94,424.387,455.189,424.387,455.189c-270.375-30.802-479.143-242.996-479.143-242.996
		c49.626,47.915,207.057,95.829,207.057,95.829c-177.967-78.717-609.198-571.55-609.198-571.55L1561.567,1895.095z"/>
	<defs>
		
			<filter id="Adobe_OpacityMaskFilter_00000023257276986104960570000013865422303349721997_" filterUnits="userSpaceOnUse" x="1692.313" y="846.69" width="1148.71" height="1070.12">
			<feColorMatrix  type="matrix" values="1 0 0 0 0  0 1 0 0 0  0 0 1 0 0  0 0 0 1 0"/>
		</filter>
	</defs>
	
		<mask maskUnits="userSpaceOnUse" x="1692.313" y="846.69" width="1148.71" height="1070.12" id="SVGID_00000149351734142790214480000002376382542431261090_">
		<g style="filter:url(#Adobe_OpacityMaskFilter_00000023257276986104960570000013865422303349721997_);">
			
				<linearGradient id="SVGID_00000116198179306491192240000006563275069284989334_" gradientUnits="userSpaceOnUse" x1="1422.6266" y1="1296.5695" x2="790.9302" y2="2870.6304" gradientTransform="matrix(1 0 0 1 1338.7371 -1147.5009)">
				<stop  offset="0" style="stop-color:#FFFFFF"/>
				<stop  offset="1" style="stop-color:#000000"/>
			</linearGradient>
			
				<rect x="1692.313" y="846.69" style="fill:url(#SVGID_00000116198179306491192240000006563275069284989334_);" width="1148.71" height="1070.12"/>
		</g>
	</mask>
	
		<path style="mask:url(#SVGID_00000149351734142790214480000002376382542431261090_);fill-rule:evenodd;clip-rule:evenodd;fill:#EBF855;" d="
		M2210.974,1159.26c0,0,237.86-106.097,422.672-68.45c0,0-13.689,390.16-114.651,497.968c0,0,71.872-68.45,85.562-104.385
		c0,0-51.584,451.889-445.043,418.459c645.789,143.091,479.427-857.016,681.51-1038.318
		c-706.898-119.399-1103.423,384.223-1148.71,800.714c0,0,176.414-559.036,819.836-651.441
		C2512.15,1013.806,2320.493,1068.565,2210.974,1159.26"/>
	<defs>
		
			<filter id="Adobe_OpacityMaskFilter_00000158739778686466271790000004511821785617150910_" filterUnits="userSpaceOnUse" x="2270.329" y="1067.164" width="113.474" height="158.863">
			<feColorMatrix  type="matrix" values="1 0 0 0 0  0 1 0 0 0  0 0 1 0 0  0 0 0 1 0"/>
		</filter>
	</defs>
	
		<mask maskUnits="userSpaceOnUse" x="2270.329" y="1067.164" width="113.474" height="158.863" id="SVGID_00000061432096189481840170000005217048367286553757_">
		<g style="filter:url(#Adobe_OpacityMaskFilter_00000158739778686466271790000004511821785617150910_);">
			
				<linearGradient id="SVGID_00000141420727333751491180000000145730447065097626_" gradientUnits="userSpaceOnUse" x1="789.9953" y1="2605.0444" x2="900.9738" y2="2357.9434" gradientTransform="matrix(1 0 0 1 1465.4038 -1298.8798)">
				<stop  offset="0" style="stop-color:#FFFFFF"/>
				<stop  offset="1" style="stop-color:#000000"/>
			</linearGradient>
			
				<rect x="2270.329" y="1067.164" style="fill:url(#SVGID_00000141420727333751491180000000145730447065097626_);" width="113.473" height="158.863"/>
		</g>
	</mask>
	
		<path style="mask:url(#SVGID_00000061432096189481840170000005217048367286553757_);fill-rule:evenodd;clip-rule:evenodd;fill:#303030;" d="
		M2327.065,1067.164c31.335,0,56.737,70.792,56.737,102.127c0,31.334-25.402,56.736-56.737,56.736s-56.737-25.402-56.737-56.736
		C2270.329,1137.956,2295.731,1067.164,2327.065,1067.164"/>
	<g>
		<defs>
			<path id="SVGID_31_" d="M2337.151,1060.545c31.336,0,56.737,70.792,56.737,102.126c0,31.335-25.401,56.737-56.737,56.737
				c-31.334,0-56.736-25.402-56.736-56.737C2280.415,1131.337,2305.817,1060.545,2337.151,1060.545"/>
		</defs>
		<clipPath id="SVGID_00000180365475711780846020000001033277121997385637_">
			<use xlink:href="#SVGID_31_"  style="overflow:visible;"/>
		</clipPath>
		
			<linearGradient id="SVGID_00000149372585938439788410000001256327681228284545_" gradientUnits="userSpaceOnUse" x1="2332.6326" y1="1061.1263" x2="2342.3523" y2="1230.7437">
			<stop  offset="0" style="stop-color:#53C406"/>
			<stop  offset="1" style="stop-color:#EBF855"/>
		</linearGradient>
		
			<rect x="2280.415" y="1060.545" style="clip-path:url(#SVGID_00000180365475711780846020000001033277121997385637_);fill:url(#SVGID_00000149372585938439788410000001256327681228284545_);" width="113.473" height="158.863"/>
	</g>
	<defs>
		
			<filter id="Adobe_OpacityMaskFilter_00000036236571855508453130000014605879330465275305_" filterUnits="userSpaceOnUse" x="2291.452" y="1071.578" width="91.399" height="90.484">
			<feColorMatrix  type="matrix" values="1 0 0 0 0  0 1 0 0 0  0 0 1 0 0  0 0 0 1 0"/>
		</filter>
	</defs>
	
		<mask maskUnits="userSpaceOnUse" x="2291.452" y="1071.578" width="91.399" height="90.484" id="SVGID_00000108290302003094837060000010509207061515603079_">
		<g style="filter:url(#Adobe_OpacityMaskFilter_00000036236571855508453130000014605879330465275305_);">
			
				<linearGradient id="SVGID_00000057830443598305638230000001194208410189782190_" gradientUnits="userSpaceOnUse" x1="873.2477" y1="2369.5264" x2="862.5239" y2="2474.8472" gradientTransform="matrix(1 0 0 1 1470.0328 -1312.897)">
				<stop  offset="0" style="stop-color:#FFFFFF"/>
				<stop  offset="1" style="stop-color:#000000"/>
			</linearGradient>
			
				<rect x="2291.452" y="1071.579" style="fill:url(#SVGID_00000057830443598305638230000001194208410189782190_);" width="91.399" height="90.483"/>
		</g>
	</mask>
	
		<path style="mask:url(#SVGID_00000108290302003094837060000010509207061515603079_);fill-rule:evenodd;clip-rule:evenodd;fill:#FFFFFF;" d="
		M2337.151,1071.578c-6.454,0-13.002,6.591-16.781,11.165c-7.497,9.075-13.37,20.915-17.701,31.809
		c-5.366,13.497-11.062,32.761-11.217,47.51c11.695-11.699,27.852-18.935,45.698-18.935c17.849,0,34.006,7.236,45.701,18.935
		c-0.155-14.749-5.852-34.013-11.218-47.51c-4.331-10.894-10.205-22.734-17.701-31.809
		C2350.155,1078.169,2343.607,1071.578,2337.151,1071.578"/>
	<defs>
		
			<filter id="Adobe_OpacityMaskFilter_00000154402251037298319240000005344440197601296541_" filterUnits="userSpaceOnUse" x="1809.67" y="1874.106" width="113.474" height="158.863">
			<feColorMatrix  type="matrix" values="1 0 0 0 0  0 1 0 0 0  0 0 1 0 0  0 0 0 1 0"/>
		</filter>
	</defs>
	
		<mask maskUnits="userSpaceOnUse" x="1809.67" y="1874.106" width="113.474" height="158.863" id="SVGID_00000046334739620105722990000007646085886920974978_">
		<g style="filter:url(#Adobe_OpacityMaskFilter_00000154402251037298319240000005344440197601296541_);">
			
				<linearGradient id="SVGID_00000035504226939363018990000003627563390854134408_" gradientUnits="userSpaceOnUse" x1="430.2859" y1="3235.1528" x2="541.2644" y2="2988.052" gradientTransform="matrix(1 0 0 1 1364.4547 -1122.0457)">
				<stop  offset="0" style="stop-color:#FFFFFF"/>
				<stop  offset="1" style="stop-color:#000000"/>
			</linearGradient>
			
				<rect x="1809.67" y="1874.106" style="fill:url(#SVGID_00000035504226939363018990000003627563390854134408_);" width="113.473" height="158.863"/>
		</g>
	</mask>
	
		<path style="mask:url(#SVGID_00000046334739620105722990000007646085886920974978_);fill-rule:evenodd;clip-rule:evenodd;fill:#303030;" d="
		M1866.406,1874.106c31.335,0,56.737,70.792,56.737,102.126c0,31.335-25.402,56.737-56.737,56.737
		c-31.334,0-56.736-25.403-56.736-56.737C1809.67,1944.898,1835.072,1874.106,1866.406,1874.106"/>
	<g>
		<defs>
			<path id="SVGID_38_" d="M1876.492,1867.487c31.336,0,56.737,70.792,56.737,102.127c0,31.334-25.401,56.736-56.737,56.736
				c-31.334,0-56.736-25.402-56.736-56.736C1819.756,1938.279,1845.158,1867.487,1876.492,1867.487"/>
		</defs>
		<clipPath id="SVGID_00000049911435786268594420000010673632069691270535_">
			<use xlink:href="#SVGID_38_"  style="overflow:visible;"/>
		</clipPath>
		
			<linearGradient id="SVGID_00000155856811450890856830000011063444760033638076_" gradientUnits="userSpaceOnUse" x1="1871.973" y1="1868.0499" x2="1881.6927" y2="2037.6671">
			<stop  offset="0" style="stop-color:#53C406"/>
			<stop  offset="1" style="stop-color:#EBF855"/>
		</linearGradient>
		
			<rect x="1819.756" y="1867.487" style="clip-path:url(#SVGID_00000049911435786268594420000010673632069691270535_);fill:url(#SVGID_00000155856811450890856830000011063444760033638076_);" width="113.473" height="158.863"/>
	</g>
	<defs>
		
			<filter id="Adobe_OpacityMaskFilter_00000049185577785790385900000007634342177387308956_" filterUnits="userSpaceOnUse" x="1830.794" y="1878.52" width="91.399" height="90.483">
			<feColorMatrix  type="matrix" values="1 0 0 0 0  0 1 0 0 0  0 0 1 0 0  0 0 0 1 0"/>
		</filter>
	</defs>
	
		<mask maskUnits="userSpaceOnUse" x="1830.794" y="1878.52" width="91.399" height="90.483" id="SVGID_00000127013632238923046400000015150350346202703523_">
		<g style="filter:url(#Adobe_OpacityMaskFilter_00000049185577785790385900000007634342177387308956_);">
			
				<linearGradient id="SVGID_00000150095305987127195440000007968243554843994259_" gradientUnits="userSpaceOnUse" x1="513.5383" y1="2999.634" x2="502.8145" y2="3104.9546" gradientTransform="matrix(1 0 0 1 1369.0837 -1136.0631)">
				<stop  offset="0" style="stop-color:#FFFFFF"/>
				<stop  offset="1" style="stop-color:#000000"/>
			</linearGradient>
			
				<rect x="1830.794" y="1878.52" style="fill:url(#SVGID_00000150095305987127195440000007968243554843994259_);" width="91.399" height="90.483"/>
		</g>
	</mask>
	
		<path style="mask:url(#SVGID_00000127013632238923046400000015150350346202703523_);fill-rule:evenodd;clip-rule:evenodd;fill:#FFFFFF;" d="
		M1876.492,1878.52c-6.454,0-13.002,6.591-16.781,11.165c-7.497,9.075-13.37,20.915-17.701,31.809
		c-5.367,13.496-11.062,32.761-11.217,47.509c11.694-11.698,27.852-18.934,45.698-18.934c17.848,0,34.006,7.236,45.701,18.934
		c-0.155-14.748-5.852-34.013-11.218-47.509c-4.33-10.895-10.204-22.734-17.701-31.809
		C1889.496,1885.111,1882.948,1878.52,1876.492,1878.52"/>
	<path style="fill:#231916;" d="M2897.095,2745.115h-65.167l-105.698,117.817v-117.817h-52.453v278.551h52.453v-123.38
		l116.427,123.38h64.77v-3.179l-133.91-140.467l123.579-133.316V2745.115z M2458.01,2793.99c32.981,0,47.684,22.319,47.684,44.704
		c0,22.385-14.305,44.703-47.684,44.703h-79.87v-89.407H2458.01z M2572.053,3020.089l-84.241-94.969
		c52.849-10.728,70.334-49.273,70.334-87.618c0-48.28-34.571-91.989-100.136-92.386c-44.107,0.397-88.215,0-132.321,0v278.551
		h52.451v-92.982h50.466l81.062,92.982h62.386V3020.089z M2284.76,2972.009h-156.164v-62.784h150.602v-48.875h-150.602v-64.374
		h156.164v-50.862h-208.218c0,92.849,0,185.965,0,278.551h208.218V2972.009z M1904.882,3023.666h52.452v-230.867h88.215v-47.683
		c-80.664,0-148.613,0-228.88,0v47.683h88.214V3023.666z M1660.503,3023.666h52.453v-230.867h88.215v-47.683
		c-80.664,0-148.613,0-228.88,0v47.683h88.213V3023.666z M1531.758,2972.009h-156.163v-62.784h150.601v-48.875h-150.601v-64.374
		h156.163v-50.862h-208.217c0,92.849,0,185.965,0,278.551h208.217V2972.009z M1091.878,2745.115v278.551h195.503v-48.479h-143.05
		v-230.072H1091.878z"/>
	<path style="fill:#231916;" d="M2740.868,3092.832c22.424,0,31.393,17.939,31.121,33.975c-0.272,15.627-8.698,32.479-31.121,32.479
		c-22.422,0-30.848-16.715-31.255-32.343C2709.206,3110.906,2718.447,3092.832,2740.868,3092.832 M2740.868,3076.524
		c-32.886,0-48.923,25.141-48.923,50.146c0,25.005,15.492,49.058,48.923,49.058c33.431,0,48.515-24.597,48.786-49.194
		C2789.928,3101.665,2773.62,3076.524,2740.868,3076.524z M2633.409,3090.25c-9.784-9.648-22.558-14.541-35.333-14.541
		c-33.567,0-50.282,24.732-50.282,51.504c0,25.005,14.542,48.515,50.282,48.515c16.716,0,28.538-6.387,37.917-17.122v-40.09h-40.77
		v16.036h24.325v16.851c-7.474,5.979-13.997,7.611-21.472,7.611c-23.645,0-32.751-16.172-32.751-31.8
		c0-19.57,12.366-35.061,32.751-35.061c8.291,0,17.803,3.397,24.19,9.513L2633.409,3090.25z M2444.14,3092.832
		c22.424,0,31.392,17.939,31.121,33.975c-0.271,15.627-8.697,32.479-31.121,32.479c-22.422,0-30.848-16.715-31.256-32.343
		C2412.477,3110.906,2421.718,3092.832,2444.14,3092.832z M2444.14,3076.524c-32.887,0-48.923,25.141-48.923,50.146
		c0,25.005,15.493,49.058,48.923,49.058c33.431,0,48.515-24.597,48.787-49.194
		C2493.199,3101.665,2476.892,3076.524,2444.14,3076.524z M2277.293,3078.291v95.263h66.861v-16.579h-48.923v-78.684H2277.293z
		 M2190.49,3155.887h-53.407v-21.472h51.504v-16.715h-51.504v-22.016h53.407v-17.394h-71.21c0,31.753,0,63.599,0,95.263h71.21
		V3155.887z M2039.271,3173.554h17.939v-94.991h-20.521l-29.761,40.837l-29.761-40.837h-20.657v94.991h17.939v-69.057l30.305,41.38
		h3.533l30.985-41.244V3173.554z M1848.914,3092.832c22.424,0,31.392,17.939,31.121,33.975
		c-0.272,15.627-8.698,32.479-31.121,32.479c-22.422,0-30.848-16.715-31.255-32.343
		C1817.251,3110.906,1826.493,3092.832,1848.914,3092.832z M1848.914,3076.524c-32.887,0-48.923,25.141-48.923,50.146
		c0,25.005,15.493,49.058,48.923,49.058c33.431,0,48.515-24.597,48.787-49.194
		C1897.974,3101.665,1881.667,3076.524,1848.914,3076.524z M1741.863,3094.054c-7.204-14.677-22.559-18.889-37.372-18.889
		c-17.53,0.136-36.828,8.154-36.828,27.723c0,21.336,17.939,26.5,37.373,28.811c12.638,1.358,22.014,5.028,22.014,13.997
		c0,10.328-10.599,14.269-21.879,14.269c-11.551,0-22.559-4.62-26.772-15.083l-14.948,7.745
		c7.066,17.395,22.014,23.374,41.448,23.374c21.199,0,39.953-9.105,39.953-30.305c0-22.694-18.482-27.858-38.323-30.305
		c-11.415-1.359-21.2-3.67-21.2-11.958c0-7.068,6.388-12.639,19.706-12.639c10.328,0,19.297,5.164,22.557,10.6L1741.863,3094.054z
		 M1606.681,3155.887h-53.407v-21.472h51.504v-16.715h-51.504v-22.016h53.407v-17.394h-71.21c0,31.753,0,63.599,0,95.263h71.21
		V3155.887z M1479.244,3078.291h-20.112l-21.744,68.717l-23.782-68.717h-11.687l-23.102,68.717l-22.424-68.717h-20.113
		l34.925,95.263h15.221l11.551-29.671l9.92-30.35l10.057,30.078l11.823,29.942h15.219L1479.244,3078.291z M1267.959,3138.901
		h-35.333l17.666-40.588L1267.959,3138.901z M1283.18,3173.554h19.569l-42.671-95.263h-19.57l-42.671,95.263h19.433l8.155-17.938
		h49.737L1283.18,3173.554z"/>
</g>
</svg>
